<svg width="14" height="14" viewBox="0 0 14 14" fill="none" xmlns="http://www.w3.org/2000/svg">
<path d="M2.85193 3.76603L4.83715 5.51281L6.60585 3.33507C6.65537 3.27419 6.718 3.22527 6.78905 3.19194C6.86011 3.15862 6.93777 3.14176 7.01625 3.14261C7.09472 3.14346 7.172 3.16201 7.24231 3.19687C7.31263 3.23172 7.37418 3.282 7.42237 3.34394L9.11019 5.51229L11.1596 3.74046C11.2401 3.67102 11.3398 3.62782 11.4455 3.61664C11.5512 3.60546 11.6578 3.62684 11.7511 3.6779C11.8443 3.72897 11.9197 3.80729 11.9672 3.90239C12.0147 3.99749 12.032 4.10482 12.0168 4.21003L11.2342 9.60846H2.78567L1.99106 4.23455C1.97528 4.12876 1.99239 4.02067 2.04008 3.92493C2.08777 3.82919 2.16374 3.75042 2.25768 3.69929C2.35163 3.64816 2.45903 3.62714 2.56532 3.63908C2.67161 3.65101 2.77167 3.69533 2.85193 3.76603ZM2.82637 10.1302H11.1742V10.6519C11.1742 10.7903 11.1192 10.923 11.0214 11.0209C10.9235 11.1187 10.7908 11.1737 10.6525 11.1737H3.34811C3.20973 11.1737 3.07703 11.1187 2.97918 11.0209C2.88134 10.923 2.82637 10.7903 2.82637 10.6519V10.1302Z" fill="#252420"/>
</svg>
