<svg width="18" height="21" viewBox="0 0 18 21" fill="none" xmlns="http://www.w3.org/2000/svg">
<path d="M11 -0.000976562H6.99999C3.15 -0.000976562 0 3.14902 0 6.99901V9.999C0 12.699 1.575 15.174 3.99999 16.324V19.674C3.99999 19.974 4.37499 20.124 4.57499 19.899L7.47499 16.999H11C14.85 16.999 18 13.849 18 9.999V6.99901C18 3.14902 14.85 -0.000976562 11 -0.000976562ZM13.625 13.124L12.6 14.124C11.525 15.174 8.74999 13.974 6.29999 11.474C3.85 8.974 2.775 6.17401 3.8 5.12401L4.79999 4.12401C5.17499 3.74901 5.79999 3.77401 6.22499 4.14901L7.67499 5.64901C8.19999 6.17401 7.97499 7.07401 7.29999 7.27401C6.82499 7.42401 6.49999 7.949 6.64999 8.424C6.89999 9.524 8.29999 10.924 9.34999 11.199C9.82499 11.299 10.35 11.049 10.525 10.574C10.75 9.899 11.65 9.699 12.15 10.224L13.6 11.724C14 12.074 14 12.699 13.625 13.124ZM9.89999 4.74901C9.79999 4.74901 9.69999 4.74901 9.59999 4.77401C9.42499 4.79901 9.24999 4.64901 9.22499 4.47401C9.19999 4.29901 9.34999 4.12401 9.52499 4.09901C9.64999 4.07401 9.77499 4.07401 9.89999 4.07401C11.725 4.07401 13.225 5.57401 13.225 7.39901C13.225 7.524 13.225 7.649 13.2 7.774C13.175 7.949 13 8.099 12.825 8.074C12.65 8.049 12.5 7.874 12.525 7.69901C12.525 7.59901 12.55 7.49901 12.55 7.39901C12.575 5.94901 11.375 4.74901 9.89999 4.74901ZM11.9 7.42401C11.9 7.59901 11.75 7.749 11.575 7.749C11.4 7.749 11.25 7.59901 11.25 7.42401C11.25 6.69901 10.65 6.09901 9.92499 6.09901C9.74999 6.09901 9.59999 5.94901 9.59999 5.77401C9.59999 5.59901 9.74999 5.44901 9.92499 5.44901C11 5.42401 11.9 6.32401 11.9 7.42401ZM14.45 8.499C14.4 8.674 14.225 8.799 14.025 8.749C13.85 8.699 13.75 8.524 13.8 8.349C13.875 8.049 13.9 7.74901 13.9 7.42401C13.9 5.22401 12.1 3.42402 9.89999 3.42402C9.79999 3.42402 9.69999 3.42402 9.59999 3.42402C9.42499 3.42402 9.24999 3.29902 9.24999 3.12402C9.24999 2.94902 9.37499 2.77402 9.54999 2.77402C9.67499 2.77402 9.79999 2.74902 9.89999 2.74902C12.475 2.74902 14.575 4.84901 14.575 7.42401C14.575 7.774 14.525 8.149 14.45 8.499Z" fill="#252420"/>
</svg>
