<svg width="16" height="12" viewBox="0 0 16 12" fill="none" xmlns="http://www.w3.org/2000/svg">
<path d="M15.6703 1.75292C15.4859 1.0675 14.9455 0.527219 14.2602 0.34265C13.0081 0 7.99984 0 7.99984 0C7.99984 0 2.99169 0 1.73962 0.329588C1.0675 0.514036 0.513914 1.06762 0.329466 1.75292C0 3.00487 0 5.60129 0 5.60129C0 5.60129 0 8.21078 0.329466 9.44967C0.514036 10.135 1.05432 10.6754 1.73974 10.8599C3.00487 11.2026 7.99997 11.2026 7.99997 11.2026C7.99997 11.2026 13.0081 11.2026 14.2602 10.873C14.9456 10.6886 15.4859 10.1482 15.6705 9.46285C15.9999 8.21078 15.9999 5.61448 15.9999 5.61448C15.9999 5.61448 16.0131 3.00487 15.6703 1.75292Z" fill="#FF0000"/>
</svg>
