<svg width="141" height="40" viewBox="0 0 141 40" fill="none" xmlns="http://www.w3.org/2000/svg">
<path d="M14.5 10C14.5 4.47715 18.9772 0 24.5 0H130.5C136.023 0 140.5 4.47715 140.5 10V30C140.5 35.5228 136.023 40 130.5 40H14.5V10Z" fill="white" fill-opacity="0.94"/>
<path d="M13.8808 35.0829C14.4904 33.4892 15.8329 32.3217 17.137 31.2214C18.8872 29.7447 20 27.5281 20 25.05C20 20.6041 16.4183 17 12 17C7.58172 17 4 20.6041 4 25.05C4 27.5281 5.11279 29.7447 6.86298 31.2214C8.16709 32.3217 9.50957 33.4892 10.1192 35.0829L11.533 38.7791C11.6969 39.2076 12.3031 39.2076 12.467 38.7791L13.8808 35.0829Z" fill="#252420"/>
<circle cx="12" cy="25" r="4" fill="#FFC83A"/>
<defs>
<clipPath id="clip0_3219_98037">
<rect width="12" height="12" fill="white" transform="translate(22.5 22)"/>
</clipPath>
</defs>
</svg>
